<mxfile host="app.diagrams.net" agent="Mozilla/5.0 (Macintosh; Intel Mac OS X 10.15; rv:133.0) Gecko/20100101 Firefox/133.0" version="24.8.6">
  <diagram name="Page-1" id="c4acf3e9-155e-7222-9cf6-157b1a14988f">
    <mxGraphModel dx="1845" dy="1275" grid="1" gridSize="10" guides="1" tooltips="1" connect="1" arrows="1" fold="1" page="1" pageScale="1" pageWidth="850" pageHeight="1100" background="none" math="0" shadow="0">
      <root>
        <mxCell id="0" />
        <mxCell id="1" parent="0" />
        <mxCell id="dIdRgz5ZT3AcrDY_tP68-26" value="is parent of" style="edgeStyle=orthogonalEdgeStyle;rounded=0;orthogonalLoop=1;jettySize=auto;html=1;shape=flexArrow;" parent="1" source="17acba5748e5396b-20" target="dIdRgz5ZT3AcrDY_tP68-4" edge="1">
          <mxGeometry relative="1" as="geometry">
            <Array as="points">
              <mxPoint x="360" y="500" />
              <mxPoint x="160" y="500" />
            </Array>
          </mxGeometry>
        </mxCell>
        <mxCell id="dIdRgz5ZT3AcrDY_tP68-28" value="is parent of" style="edgeStyle=orthogonalEdgeStyle;rounded=0;orthogonalLoop=1;jettySize=auto;html=1;shape=flexArrow;" parent="1" source="17acba5748e5396b-20" target="dIdRgz5ZT3AcrDY_tP68-11" edge="1">
          <mxGeometry relative="1" as="geometry">
            <Array as="points">
              <mxPoint x="360" y="500" />
              <mxPoint x="560" y="500" />
            </Array>
          </mxGeometry>
        </mxCell>
        <mxCell id="17acba5748e5396b-20" value="Class: Tank" style="swimlane;html=1;fontStyle=0;childLayout=stackLayout;horizontal=1;startSize=26;fillColor=none;horizontalStack=0;resizeParent=1;resizeLast=0;collapsible=1;marginBottom=0;swimlaneFillColor=#ffffff;rounded=0;shadow=0;comic=0;labelBackgroundColor=none;strokeWidth=1;fontFamily=Verdana;fontSize=10;align=center;" parent="1" vertex="1">
          <mxGeometry x="280" y="320" width="160" height="130" as="geometry" />
        </mxCell>
        <mxCell id="17acba5748e5396b-21" value="&lt;div&gt;+ health: float&lt;/div&gt;" style="text;html=1;strokeColor=none;fillColor=none;align=left;verticalAlign=top;spacingLeft=4;spacingRight=4;whiteSpace=wrap;overflow=hidden;rotatable=0;points=[[0,0.5],[1,0.5]];portConstraint=eastwest;" parent="17acba5748e5396b-20" vertex="1">
          <mxGeometry y="26" width="160" height="26" as="geometry" />
        </mxCell>
        <mxCell id="dIdRgz5ZT3AcrDY_tP68-15" value="+ damage: float" style="text;html=1;strokeColor=none;fillColor=none;align=left;verticalAlign=top;spacingLeft=4;spacingRight=4;whiteSpace=wrap;overflow=hidden;rotatable=0;points=[[0,0.5],[1,0.5]];portConstraint=eastwest;" parent="17acba5748e5396b-20" vertex="1">
          <mxGeometry y="52" width="160" height="26" as="geometry" />
        </mxCell>
        <mxCell id="dIdRgz5ZT3AcrDY_tP68-35" value="+ core: Core" style="text;html=1;strokeColor=none;fillColor=none;align=left;verticalAlign=top;spacingLeft=4;spacingRight=4;whiteSpace=wrap;overflow=hidden;rotatable=0;points=[[0,0.5],[1,0.5]];portConstraint=eastwest;" parent="17acba5748e5396b-20" vertex="1">
          <mxGeometry y="78" width="160" height="26" as="geometry" />
        </mxCell>
        <mxCell id="dIdRgz5ZT3AcrDY_tP68-36" value="+ upgrades: Upgrade[]" style="text;html=1;strokeColor=none;fillColor=none;align=left;verticalAlign=top;spacingLeft=4;spacingRight=4;whiteSpace=wrap;overflow=hidden;rotatable=0;points=[[0,0.5],[1,0.5]];portConstraint=eastwest;" parent="17acba5748e5396b-20" vertex="1">
          <mxGeometry y="104" width="160" height="26" as="geometry" />
        </mxCell>
        <mxCell id="dIdRgz5ZT3AcrDY_tP68-4" value="class: Player" style="swimlane;html=1;fontStyle=0;childLayout=stackLayout;horizontal=1;startSize=26;fillColor=none;horizontalStack=0;resizeParent=1;resizeLast=0;collapsible=1;marginBottom=0;swimlaneFillColor=#ffffff;rounded=0;shadow=0;comic=0;labelBackgroundColor=none;strokeWidth=1;fontFamily=Verdana;fontSize=10;align=center;" parent="1" vertex="1">
          <mxGeometry x="80" y="600" width="160" height="110" as="geometry" />
        </mxCell>
        <mxCell id="dIdRgz5ZT3AcrDY_tP68-90" value="is parent of" style="edgeStyle=orthogonalEdgeStyle;rounded=0;orthogonalLoop=1;jettySize=auto;html=1;shape=flexArrow;" parent="1" source="dIdRgz5ZT3AcrDY_tP68-11" target="dIdRgz5ZT3AcrDY_tP68-82" edge="1">
          <mxGeometry relative="1" as="geometry" />
        </mxCell>
        <mxCell id="dIdRgz5ZT3AcrDY_tP68-106" value="is parent of" style="edgeStyle=orthogonalEdgeStyle;rounded=0;orthogonalLoop=1;jettySize=auto;html=1;shape=flexArrow;" parent="1" source="dIdRgz5ZT3AcrDY_tP68-11" target="dIdRgz5ZT3AcrDY_tP68-103" edge="1">
          <mxGeometry relative="1" as="geometry" />
        </mxCell>
        <mxCell id="dIdRgz5ZT3AcrDY_tP68-11" value="Abstract class: EnemyAI" style="swimlane;html=1;fontStyle=0;childLayout=stackLayout;horizontal=1;startSize=26;fillColor=none;horizontalStack=0;resizeParent=1;resizeLast=0;collapsible=1;marginBottom=0;swimlaneFillColor=#ffffff;rounded=0;shadow=0;comic=0;labelBackgroundColor=none;strokeWidth=1;fontFamily=Verdana;fontSize=10;align=center;" parent="1" vertex="1">
          <mxGeometry x="480" y="600" width="150" height="224" as="geometry" />
        </mxCell>
        <mxCell id="dIdRgz5ZT3AcrDY_tP68-70" value="+ current_state: States" style="text;strokeColor=none;fillColor=none;align=left;verticalAlign=top;spacingLeft=4;spacingRight=4;overflow=hidden;rotatable=0;points=[[0,0.5],[1,0.5]];portConstraint=eastwest;whiteSpace=wrap;html=1;" parent="dIdRgz5ZT3AcrDY_tP68-11" vertex="1">
          <mxGeometry y="26" width="150" height="26" as="geometry" />
        </mxCell>
        <mxCell id="dIdRgz5ZT3AcrDY_tP68-72" value="+ state_timer: Timer" style="text;strokeColor=none;fillColor=none;align=left;verticalAlign=top;spacingLeft=4;spacingRight=4;overflow=hidden;rotatable=0;points=[[0,0.5],[1,0.5]];portConstraint=eastwest;whiteSpace=wrap;html=1;" parent="dIdRgz5ZT3AcrDY_tP68-11" vertex="1">
          <mxGeometry y="52" width="150" height="26" as="geometry" />
        </mxCell>
        <mxCell id="TUdrBF9tCKFqTnY4Q7Av-39" value="+ item: attribute" style="text;strokeColor=none;fillColor=none;align=left;verticalAlign=top;spacingLeft=4;spacingRight=4;overflow=hidden;rotatable=0;points=[[0,0.5],[1,0.5]];portConstraint=eastwest;whiteSpace=wrap;html=1;fontFamily=Helvetica;fontSize=12;fontColor=default;" vertex="1" parent="dIdRgz5ZT3AcrDY_tP68-11">
          <mxGeometry y="78" width="150" height="26" as="geometry" />
        </mxCell>
        <mxCell id="TUdrBF9tCKFqTnY4Q7Av-46" value="" style="line;strokeWidth=1;fillColor=none;align=left;verticalAlign=middle;spacingTop=-1;spacingLeft=3;spacingRight=3;rotatable=0;labelPosition=right;points=[];portConstraint=eastwest;strokeColor=inherit;fontFamily=Helvetica;fontSize=12;fontColor=default;" vertex="1" parent="dIdRgz5ZT3AcrDY_tP68-11">
          <mxGeometry y="104" width="150" height="10" as="geometry" />
        </mxCell>
        <mxCell id="dIdRgz5ZT3AcrDY_tP68-71" value="+ stand(Null): Null" style="text;strokeColor=none;fillColor=none;align=left;verticalAlign=top;spacingLeft=4;spacingRight=4;overflow=hidden;rotatable=0;points=[[0,0.5],[1,0.5]];portConstraint=eastwest;whiteSpace=wrap;html=1;" parent="dIdRgz5ZT3AcrDY_tP68-11" vertex="1">
          <mxGeometry y="114" width="150" height="26" as="geometry" />
        </mxCell>
        <mxCell id="TUdrBF9tCKFqTnY4Q7Av-47" value="+ wander(Null): Null" style="text;strokeColor=none;fillColor=none;align=left;verticalAlign=top;spacingLeft=4;spacingRight=4;overflow=hidden;rotatable=0;points=[[0,0.5],[1,0.5]];portConstraint=eastwest;whiteSpace=wrap;html=1;" vertex="1" parent="dIdRgz5ZT3AcrDY_tP68-11">
          <mxGeometry y="140" width="150" height="26" as="geometry" />
        </mxCell>
        <mxCell id="TUdrBF9tCKFqTnY4Q7Av-48" value="+ stalk(Null): Null" style="text;strokeColor=none;fillColor=none;align=left;verticalAlign=top;spacingLeft=4;spacingRight=4;overflow=hidden;rotatable=0;points=[[0,0.5],[1,0.5]];portConstraint=eastwest;whiteSpace=wrap;html=1;" vertex="1" parent="dIdRgz5ZT3AcrDY_tP68-11">
          <mxGeometry y="166" width="150" height="26" as="geometry" />
        </mxCell>
        <mxCell id="TUdrBF9tCKFqTnY4Q7Av-28" value="Core provide upgrades with slots" style="rounded=0;orthogonalLoop=1;jettySize=auto;html=1;fontFamily=Helvetica;fontSize=12;fontColor=default;strokeColor=default;edgeStyle=orthogonalEdgeStyle;startArrow=blockThin;startFill=1;entryX=0;entryY=0.5;entryDx=0;entryDy=0;exitX=0.5;exitY=0;exitDx=0;exitDy=0;" edge="1" parent="1" source="dIdRgz5ZT3AcrDY_tP68-29" target="TUdrBF9tCKFqTnY4Q7Av-27">
          <mxGeometry x="-0.0003" relative="1" as="geometry">
            <mxPoint as="offset" />
          </mxGeometry>
        </mxCell>
        <mxCell id="dIdRgz5ZT3AcrDY_tP68-29" value="Class: Core" style="swimlane;html=1;fontStyle=0;childLayout=stackLayout;horizontal=1;startSize=20;fillColor=none;horizontalStack=0;resizeParent=1;resizeLast=0;collapsible=1;marginBottom=0;swimlaneFillColor=#ffffff;rounded=0;shadow=0;comic=0;labelBackgroundColor=none;strokeWidth=1;fontFamily=Verdana;fontSize=10;align=center;" parent="1" vertex="1">
          <mxGeometry x="1290" y="810" width="160" height="126" as="geometry" />
        </mxCell>
        <mxCell id="dIdRgz5ZT3AcrDY_tP68-30" value="+ level: int" style="text;html=1;strokeColor=none;fillColor=none;align=left;verticalAlign=top;spacingLeft=4;spacingRight=4;whiteSpace=wrap;overflow=hidden;rotatable=0;points=[[0,0.5],[1,0.5]];portConstraint=eastwest;" parent="dIdRgz5ZT3AcrDY_tP68-29" vertex="1">
          <mxGeometry y="20" width="160" height="26" as="geometry" />
        </mxCell>
        <mxCell id="dIdRgz5ZT3AcrDY_tP68-95" value="+ slots_providing: int" style="text;html=1;strokeColor=none;fillColor=none;align=left;verticalAlign=top;spacingLeft=4;spacingRight=4;whiteSpace=wrap;overflow=hidden;rotatable=0;points=[[0,0.5],[1,0.5]];portConstraint=eastwest;" parent="dIdRgz5ZT3AcrDY_tP68-29" vertex="1">
          <mxGeometry y="46" width="160" height="28" as="geometry" />
        </mxCell>
        <mxCell id="dIdRgz5ZT3AcrDY_tP68-108" value="+ base_health: int" style="text;html=1;strokeColor=none;fillColor=none;align=left;verticalAlign=top;spacingLeft=4;spacingRight=4;whiteSpace=wrap;overflow=hidden;rotatable=0;points=[[0,0.5],[1,0.5]];portConstraint=eastwest;" parent="dIdRgz5ZT3AcrDY_tP68-29" vertex="1">
          <mxGeometry y="74" width="160" height="26" as="geometry" />
        </mxCell>
        <mxCell id="dIdRgz5ZT3AcrDY_tP68-109" value="+ base_speed: int" style="text;html=1;strokeColor=none;fillColor=none;align=left;verticalAlign=top;spacingLeft=4;spacingRight=4;whiteSpace=wrap;overflow=hidden;rotatable=0;points=[[0,0.5],[1,0.5]];portConstraint=eastwest;" parent="dIdRgz5ZT3AcrDY_tP68-29" vertex="1">
          <mxGeometry y="100" width="160" height="26" as="geometry" />
        </mxCell>
        <mxCell id="TUdrBF9tCKFqTnY4Q7Av-3" value="is parent of" style="edgeStyle=orthogonalEdgeStyle;rounded=0;orthogonalLoop=1;jettySize=auto;html=1;shape=flexArrow;" edge="1" parent="1" source="dIdRgz5ZT3AcrDY_tP68-32" target="TUdrBF9tCKFqTnY4Q7Av-1">
          <mxGeometry relative="1" as="geometry" />
        </mxCell>
        <mxCell id="TUdrBF9tCKFqTnY4Q7Av-8" value="is parent of" style="edgeStyle=orthogonalEdgeStyle;rounded=0;orthogonalLoop=1;jettySize=auto;html=1;fontFamily=Helvetica;fontSize=12;fontColor=default;shape=flexArrow;" edge="1" parent="1" source="dIdRgz5ZT3AcrDY_tP68-32" target="TUdrBF9tCKFqTnY4Q7Av-5">
          <mxGeometry relative="1" as="geometry" />
        </mxCell>
        <mxCell id="TUdrBF9tCKFqTnY4Q7Av-12" value="is parent of" style="edgeStyle=orthogonalEdgeStyle;rounded=0;orthogonalLoop=1;jettySize=auto;html=1;fontFamily=Helvetica;fontSize=12;fontColor=default;shape=flexArrow;entryX=0.5;entryY=0;entryDx=0;entryDy=0;" edge="1" parent="1" source="dIdRgz5ZT3AcrDY_tP68-32" target="TUdrBF9tCKFqTnY4Q7Av-9">
          <mxGeometry relative="1" as="geometry">
            <Array as="points">
              <mxPoint x="2140" y="865" />
            </Array>
          </mxGeometry>
        </mxCell>
        <mxCell id="TUdrBF9tCKFqTnY4Q7Av-29" value="Upgrades fill provided slots" style="rounded=0;orthogonalLoop=1;jettySize=auto;html=1;entryX=1;entryY=0.5;entryDx=0;entryDy=0;fontFamily=Helvetica;fontSize=12;fontColor=default;strokeColor=default;edgeStyle=orthogonalEdgeStyle;startArrow=blockThin;startFill=1;" edge="1" parent="1" source="dIdRgz5ZT3AcrDY_tP68-32" target="TUdrBF9tCKFqTnY4Q7Av-27">
          <mxGeometry x="-0.0019" relative="1" as="geometry">
            <Array as="points">
              <mxPoint x="1935" y="700" />
            </Array>
            <mxPoint as="offset" />
          </mxGeometry>
        </mxCell>
        <mxCell id="dIdRgz5ZT3AcrDY_tP68-32" value="&lt;div&gt;Abstract class: Upgrade&lt;/div&gt;" style="swimlane;html=1;fontStyle=0;childLayout=stackLayout;horizontal=1;startSize=26;fillColor=none;horizontalStack=0;resizeParent=1;resizeLast=0;collapsible=1;marginBottom=0;swimlaneFillColor=#ffffff;rounded=0;shadow=0;comic=0;labelBackgroundColor=none;strokeWidth=1;fontFamily=Verdana;fontSize=10;align=center;" parent="1" vertex="1">
          <mxGeometry x="1840" y="810" width="190" height="110" as="geometry" />
        </mxCell>
        <mxCell id="dIdRgz5ZT3AcrDY_tP68-33" value="+&amp;nbsp;slots_taken_horizontally: int" style="text;html=1;strokeColor=none;fillColor=none;align=left;verticalAlign=top;spacingLeft=4;spacingRight=4;whiteSpace=wrap;overflow=hidden;rotatable=0;points=[[0,0.5],[1,0.5]];portConstraint=eastwest;" parent="dIdRgz5ZT3AcrDY_tP68-32" vertex="1">
          <mxGeometry y="26" width="190" height="30" as="geometry" />
        </mxCell>
        <mxCell id="TUdrBF9tCKFqTnY4Q7Av-4" value="+ slots_taken_vertically: int" style="text;html=1;strokeColor=none;fillColor=none;align=left;verticalAlign=top;spacingLeft=4;spacingRight=4;whiteSpace=wrap;overflow=hidden;rotatable=0;points=[[0,0.5],[1,0.5]];portConstraint=eastwest;" vertex="1" parent="dIdRgz5ZT3AcrDY_tP68-32">
          <mxGeometry y="56" width="190" height="26" as="geometry" />
        </mxCell>
        <mxCell id="dIdRgz5ZT3AcrDY_tP68-46" value="comments" style="edgeStyle=orthogonalEdgeStyle;rounded=0;orthogonalLoop=1;jettySize=auto;html=1;exitX=0.5;exitY=0;exitDx=0;exitDy=0;exitPerimeter=0;endArrow=none;dashed=1;" parent="1" source="dIdRgz5ZT3AcrDY_tP68-44" target="dIdRgz5ZT3AcrDY_tP68-4" edge="1">
          <mxGeometry x="0.016" relative="1" as="geometry">
            <mxPoint as="offset" />
          </mxGeometry>
        </mxCell>
        <mxCell id="dIdRgz5ZT3AcrDY_tP68-44" value="Defines the movement" style="shape=note;whiteSpace=wrap;html=1;strokeWidth=2;fontSize=14;size=20;fillColor=#fff2cc;strokeColor=#d6b656;fontColor=#666600;" parent="1" vertex="1">
          <mxGeometry x="100" y="770" width="120" height="80" as="geometry" />
        </mxCell>
        <mxCell id="dIdRgz5ZT3AcrDY_tP68-56" value="comments" style="edgeStyle=orthogonalEdgeStyle;rounded=0;orthogonalLoop=1;jettySize=auto;html=1;exitX=0.55;exitY=0.95;exitDx=0;exitDy=0;exitPerimeter=0;endArrow=none;dashed=1;" parent="1" source="dIdRgz5ZT3AcrDY_tP68-57" target="17acba5748e5396b-20" edge="1">
          <mxGeometry relative="1" as="geometry">
            <mxPoint x="365" y="320" as="targetPoint" />
          </mxGeometry>
        </mxCell>
        <mxCell id="dIdRgz5ZT3AcrDY_tP68-57" value="Defines what a tank is at its core" style="shape=note;whiteSpace=wrap;html=1;strokeWidth=2;fontSize=14;size=20;fillColor=#fff2cc;strokeColor=#d6b656;fontColor=#666600;" parent="1" vertex="1">
          <mxGeometry x="305" y="170" width="110" height="80" as="geometry" />
        </mxCell>
        <mxCell id="dIdRgz5ZT3AcrDY_tP68-74" value="comments" style="edgeStyle=orthogonalEdgeStyle;rounded=0;orthogonalLoop=1;jettySize=auto;html=1;exitX=0.55;exitY=0.95;exitDx=0;exitDy=0;exitPerimeter=0;endArrow=none;dashed=1;" parent="1" source="dIdRgz5ZT3AcrDY_tP68-75" target="dIdRgz5ZT3AcrDY_tP68-11" edge="1">
          <mxGeometry x="0.016" relative="1" as="geometry">
            <mxPoint x="640.0000000000002" y="370" as="targetPoint" />
            <mxPoint as="offset" />
            <Array as="points">
              <mxPoint x="675" y="586" />
              <mxPoint x="675" y="630" />
            </Array>
          </mxGeometry>
        </mxCell>
        <mxCell id="dIdRgz5ZT3AcrDY_tP68-75" value="Defines the base ai movement" style="shape=note;whiteSpace=wrap;html=1;strokeWidth=2;fontSize=14;size=20;fillColor=#fff2cc;strokeColor=#d6b656;fontColor=#666600;" parent="1" vertex="1">
          <mxGeometry x="690" y="465" width="120" height="80" as="geometry" />
        </mxCell>
        <mxCell id="dIdRgz5ZT3AcrDY_tP68-82" value="Class: Bastion" style="swimlane;html=1;fontStyle=0;childLayout=stackLayout;horizontal=1;startSize=26;fillColor=none;horizontalStack=0;resizeParent=1;resizeLast=0;collapsible=1;marginBottom=0;swimlaneFillColor=#ffffff;rounded=0;shadow=0;comic=0;labelBackgroundColor=none;strokeWidth=1;fontFamily=Verdana;fontSize=10;align=center;" parent="1" vertex="1">
          <mxGeometry x="250" y="880" width="160" height="107" as="geometry" />
        </mxCell>
        <mxCell id="dIdRgz5ZT3AcrDY_tP68-93" value="comments" style="edgeStyle=orthogonalEdgeStyle;rounded=0;orthogonalLoop=1;jettySize=auto;html=1;endArrow=none;dashed=1;" parent="1" source="dIdRgz5ZT3AcrDY_tP68-94" target="dIdRgz5ZT3AcrDY_tP68-82" edge="1">
          <mxGeometry x="0.016" relative="1" as="geometry">
            <mxPoint x="435" y="793" as="targetPoint" />
            <mxPoint as="offset" />
            <Array as="points" />
          </mxGeometry>
        </mxCell>
        <mxCell id="dIdRgz5ZT3AcrDY_tP68-94" value="&lt;div&gt;Defines more specific ai&lt;/div&gt;&lt;div&gt;movement&lt;/div&gt;&lt;div&gt;&amp;amp;&lt;/div&gt;&lt;div&gt;tank attributes, upgrades and core&lt;br&gt;&lt;/div&gt;" style="shape=note;whiteSpace=wrap;html=1;strokeWidth=2;fontSize=14;size=20;fillColor=#fff2cc;strokeColor=#d6b656;fontColor=#666600;" parent="1" vertex="1">
          <mxGeometry x="262.5" y="1060" width="135" height="120" as="geometry" />
        </mxCell>
        <mxCell id="dIdRgz5ZT3AcrDY_tP68-96" value="is parent of" style="edgeStyle=orthogonalEdgeStyle;rounded=0;orthogonalLoop=1;jettySize=auto;html=1;shape=flexArrow;" parent="1" source="dIdRgz5ZT3AcrDY_tP68-11" target="dIdRgz5ZT3AcrDY_tP68-97" edge="1">
          <mxGeometry relative="1" as="geometry">
            <mxPoint x="955" y="617" as="sourcePoint" />
          </mxGeometry>
        </mxCell>
        <mxCell id="dIdRgz5ZT3AcrDY_tP68-97" value="Class: Sniper" style="swimlane;html=1;fontStyle=0;childLayout=stackLayout;horizontal=1;startSize=26;fillColor=none;horizontalStack=0;resizeParent=1;resizeLast=0;collapsible=1;marginBottom=0;swimlaneFillColor=#ffffff;rounded=0;shadow=0;comic=0;labelBackgroundColor=none;strokeWidth=1;fontFamily=Verdana;fontSize=10;align=center;" parent="1" vertex="1">
          <mxGeometry x="480" y="873.5" width="160" height="107" as="geometry" />
        </mxCell>
        <mxCell id="dIdRgz5ZT3AcrDY_tP68-98" value="comments" style="edgeStyle=orthogonalEdgeStyle;rounded=0;orthogonalLoop=1;jettySize=auto;html=1;endArrow=none;dashed=1;" parent="1" source="dIdRgz5ZT3AcrDY_tP68-99" target="dIdRgz5ZT3AcrDY_tP68-97" edge="1">
          <mxGeometry x="0.016" relative="1" as="geometry">
            <mxPoint x="750" y="803" as="targetPoint" />
            <mxPoint as="offset" />
            <Array as="points">
              <mxPoint x="564" y="1010" />
              <mxPoint x="564" y="1010" />
            </Array>
          </mxGeometry>
        </mxCell>
        <mxCell id="dIdRgz5ZT3AcrDY_tP68-99" value="&lt;div&gt;Defines more specific ai&lt;/div&gt;&lt;div&gt;movement&lt;/div&gt;&lt;div&gt;&amp;amp;&lt;/div&gt;&lt;div&gt;tank attributes, upgrades and core&lt;br&gt;&lt;/div&gt;" style="shape=note;whiteSpace=wrap;html=1;strokeWidth=2;fontSize=14;size=20;fillColor=#fff2cc;strokeColor=#d6b656;fontColor=#666600;" parent="1" vertex="1">
          <mxGeometry x="490" y="1060" width="135" height="120" as="geometry" />
        </mxCell>
        <mxCell id="dIdRgz5ZT3AcrDY_tP68-103" value="Class: Flanker" style="swimlane;html=1;fontStyle=0;childLayout=stackLayout;horizontal=1;startSize=26;fillColor=none;horizontalStack=0;resizeParent=1;resizeLast=0;collapsible=1;marginBottom=0;swimlaneFillColor=#ffffff;rounded=0;shadow=0;comic=0;labelBackgroundColor=none;strokeWidth=1;fontFamily=Verdana;fontSize=10;align=center;" parent="1" vertex="1">
          <mxGeometry x="730" y="880" width="160" height="107" as="geometry" />
        </mxCell>
        <mxCell id="dIdRgz5ZT3AcrDY_tP68-104" value="comments" style="edgeStyle=orthogonalEdgeStyle;rounded=0;orthogonalLoop=1;jettySize=auto;html=1;endArrow=none;dashed=1;" parent="1" source="dIdRgz5ZT3AcrDY_tP68-105" target="dIdRgz5ZT3AcrDY_tP68-103" edge="1">
          <mxGeometry x="0.016" relative="1" as="geometry">
            <mxPoint x="1080" y="803" as="targetPoint" />
            <mxPoint as="offset" />
            <Array as="points">
              <mxPoint x="810" y="1030" />
              <mxPoint x="814" y="1030" />
            </Array>
          </mxGeometry>
        </mxCell>
        <mxCell id="dIdRgz5ZT3AcrDY_tP68-105" value="&lt;div&gt;Defines more specific ai&lt;/div&gt;&lt;div&gt;movement&lt;/div&gt;&lt;div&gt;&amp;amp;&lt;/div&gt;&lt;div&gt;tank attributes, upgrades and core&lt;br&gt;&lt;/div&gt;" style="shape=note;whiteSpace=wrap;html=1;strokeWidth=2;fontSize=14;size=20;fillColor=#fff2cc;strokeColor=#d6b656;fontColor=#666600;" parent="1" vertex="1">
          <mxGeometry x="742.5" y="1060" width="135" height="120" as="geometry" />
        </mxCell>
        <mxCell id="TUdrBF9tCKFqTnY4Q7Av-56" style="edgeStyle=orthogonalEdgeStyle;rounded=0;orthogonalLoop=1;jettySize=auto;html=1;entryX=0.5;entryY=0;entryDx=0;entryDy=0;fontFamily=Helvetica;fontSize=12;fontColor=default;" edge="1" parent="1" source="TUdrBF9tCKFqTnY4Q7Av-1" target="TUdrBF9tCKFqTnY4Q7Av-54">
          <mxGeometry relative="1" as="geometry" />
        </mxCell>
        <mxCell id="TUdrBF9tCKFqTnY4Q7Av-1" value="&lt;div&gt;Class: Gun&lt;/div&gt;" style="swimlane;html=1;fontStyle=0;childLayout=stackLayout;horizontal=1;startSize=26;fillColor=none;horizontalStack=0;resizeParent=1;resizeLast=0;collapsible=1;marginBottom=0;swimlaneFillColor=#ffffff;rounded=0;shadow=0;comic=0;labelBackgroundColor=none;strokeWidth=1;fontFamily=Verdana;fontSize=10;align=center;" vertex="1" parent="1">
          <mxGeometry x="1650" y="1110" width="160" height="110" as="geometry" />
        </mxCell>
        <mxCell id="TUdrBF9tCKFqTnY4Q7Av-35" value="+ damage: " style="text;strokeColor=none;fillColor=none;align=left;verticalAlign=top;spacingLeft=4;spacingRight=4;overflow=hidden;rotatable=0;points=[[0,0.5],[1,0.5]];portConstraint=eastwest;whiteSpace=wrap;html=1;fontFamily=Helvetica;fontSize=12;fontColor=default;" vertex="1" parent="TUdrBF9tCKFqTnY4Q7Av-1">
          <mxGeometry y="26" width="160" height="26" as="geometry" />
        </mxCell>
        <mxCell id="TUdrBF9tCKFqTnY4Q7Av-5" value="Class: Generator" style="swimlane;html=1;fontStyle=0;childLayout=stackLayout;horizontal=1;startSize=26;fillColor=none;horizontalStack=0;resizeParent=1;resizeLast=0;collapsible=1;marginBottom=0;swimlaneFillColor=#ffffff;rounded=0;shadow=0;comic=0;labelBackgroundColor=none;strokeWidth=1;fontFamily=Verdana;fontSize=10;align=center;" vertex="1" parent="1">
          <mxGeometry x="1855" y="1110" width="160" height="110" as="geometry" />
        </mxCell>
        <mxCell id="TUdrBF9tCKFqTnY4Q7Av-9" value="Class: Shield" style="swimlane;html=1;fontStyle=0;childLayout=stackLayout;horizontal=1;startSize=26;fillColor=none;horizontalStack=0;resizeParent=1;resizeLast=0;collapsible=1;marginBottom=0;swimlaneFillColor=#ffffff;rounded=0;shadow=0;comic=0;labelBackgroundColor=none;strokeWidth=1;fontFamily=Verdana;fontSize=10;align=center;" vertex="1" parent="1">
          <mxGeometry x="2060" y="1110" width="160" height="110" as="geometry" />
        </mxCell>
        <mxCell id="TUdrBF9tCKFqTnY4Q7Av-24" value="Tank Hiearchy" style="shape=umlFrame;whiteSpace=wrap;html=1;pointerEvents=0;align=left;verticalAlign=top;spacingLeft=4;spacingRight=4;fontFamily=Helvetica;fontSize=12;fontColor=default;fillColor=none;gradientColor=none;width=110;height=40;" vertex="1" parent="1">
          <mxGeometry y="130" width="960" height="1130" as="geometry" />
        </mxCell>
        <mxCell id="TUdrBF9tCKFqTnY4Q7Av-25" value="Tank Creator" style="shape=umlFrame;whiteSpace=wrap;html=1;pointerEvents=0;align=left;verticalAlign=top;spacingLeft=4;spacingRight=4;fontFamily=Helvetica;fontSize=12;fontColor=default;fillColor=none;gradientColor=none;width=100;height=30;" vertex="1" parent="1">
          <mxGeometry x="1260" y="410" width="980" height="840" as="geometry" />
        </mxCell>
        <mxCell id="TUdrBF9tCKFqTnY4Q7Av-33" value="Provides tank data" style="rounded=0;orthogonalLoop=1;jettySize=auto;html=1;fontFamily=Helvetica;fontSize=12;fontColor=default;strokeColor=default;edgeStyle=orthogonalEdgeStyle;startArrow=blockThin;startFill=1;exitX=0.5;exitY=0;exitDx=0;exitDy=0;" edge="1" parent="1" source="TUdrBF9tCKFqTnY4Q7Av-27" target="TUdrBF9tCKFqTnY4Q7Av-32">
          <mxGeometry relative="1" as="geometry" />
        </mxCell>
        <mxCell id="TUdrBF9tCKFqTnY4Q7Av-27" value="&lt;div&gt;Slot interface Relationship&lt;/div&gt;" style="rhombus;whiteSpace=wrap;html=1;fontSize=10;fontFamily=Verdana;fillColor=none;fontStyle=0;startSize=20;swimlaneFillColor=#ffffff;rounded=0;shadow=0;comic=0;labelBackgroundColor=none;strokeWidth=1;" vertex="1" parent="1">
          <mxGeometry x="1560" y="660" width="80" height="80" as="geometry" />
        </mxCell>
        <mxCell id="TUdrBF9tCKFqTnY4Q7Av-32" value="Tank Creation Relationship" style="rhombus;whiteSpace=wrap;html=1;fontSize=10;fontFamily=Verdana;fillColor=none;fontStyle=0;startSize=20;swimlaneFillColor=#ffffff;rounded=0;shadow=0;comic=0;labelBackgroundColor=none;strokeWidth=1;" vertex="1" parent="1">
          <mxGeometry x="1100" y="400" width="80" height="80" as="geometry" />
        </mxCell>
        <mxCell id="TUdrBF9tCKFqTnY4Q7Av-34" value="Requests data from tank creator to define a tank" style="rounded=0;orthogonalLoop=1;jettySize=auto;html=1;entryX=0;entryY=0.5;entryDx=0;entryDy=0;fontFamily=Helvetica;fontSize=12;fontColor=default;strokeColor=default;edgeStyle=orthogonalEdgeStyle;startArrow=blockThin;startFill=1;" edge="1" parent="1" source="17acba5748e5396b-21" target="TUdrBF9tCKFqTnY4Q7Av-32">
          <mxGeometry relative="1" as="geometry" />
        </mxCell>
        <mxCell id="TUdrBF9tCKFqTnY4Q7Av-36" value="Supplies" style="edgeStyle=orthogonalEdgeStyle;rounded=0;orthogonalLoop=1;jettySize=auto;html=1;fontFamily=Helvetica;fontSize=12;fontColor=default;endArrow=block;endFill=1;" edge="1" parent="1" source="dIdRgz5ZT3AcrDY_tP68-48" target="dIdRgz5ZT3AcrDY_tP68-70">
          <mxGeometry relative="1" as="geometry" />
        </mxCell>
        <mxCell id="dIdRgz5ZT3AcrDY_tP68-48" value="Enum: States" style="swimlane;fontStyle=0;childLayout=stackLayout;horizontal=1;startSize=30;horizontalStack=0;resizeParent=1;resizeParentMax=0;resizeLast=0;collapsible=1;marginBottom=0;whiteSpace=wrap;html=1;textShadow=0;verticalAlign=top;gradientColor=none;swimlaneFillColor=none;dashed=1;dashPattern=1 1;fillColor=default;" parent="1" vertex="1">
          <mxGeometry x="850" y="579" width="80" height="120" as="geometry" />
        </mxCell>
        <mxCell id="dIdRgz5ZT3AcrDY_tP68-49" value="Stand&lt;span style=&quot;white-space: pre;&quot;&gt;&#x9;&lt;/span&gt;" style="text;strokeColor=default;fillColor=none;align=left;verticalAlign=middle;spacingLeft=4;spacingRight=4;overflow=hidden;points=[[0,0.5],[1,0.5]];portConstraint=eastwest;rotatable=0;whiteSpace=wrap;html=1;" parent="dIdRgz5ZT3AcrDY_tP68-48" vertex="1">
          <mxGeometry y="30" width="80" height="30" as="geometry" />
        </mxCell>
        <mxCell id="dIdRgz5ZT3AcrDY_tP68-50" value="Wander" style="text;strokeColor=default;fillColor=none;align=left;verticalAlign=middle;spacingLeft=4;spacingRight=4;overflow=hidden;points=[[0,0.5],[1,0.5]];portConstraint=eastwest;rotatable=0;whiteSpace=wrap;html=1;" parent="dIdRgz5ZT3AcrDY_tP68-48" vertex="1">
          <mxGeometry y="60" width="80" height="30" as="geometry" />
        </mxCell>
        <mxCell id="dIdRgz5ZT3AcrDY_tP68-51" value="Stalk" style="text;strokeColor=default;fillColor=none;align=left;verticalAlign=middle;spacingLeft=4;spacingRight=4;overflow=hidden;points=[[0,0.5],[1,0.5]];portConstraint=eastwest;rotatable=0;whiteSpace=wrap;html=1;" parent="dIdRgz5ZT3AcrDY_tP68-48" vertex="1">
          <mxGeometry y="90" width="80" height="30" as="geometry" />
        </mxCell>
        <mxCell id="TUdrBF9tCKFqTnY4Q7Av-85" value="Client has an inventory" style="edgeStyle=orthogonalEdgeStyle;rounded=0;orthogonalLoop=1;jettySize=auto;html=1;entryX=0.5;entryY=1;entryDx=0;entryDy=0;fontFamily=Helvetica;fontSize=12;fontColor=default;" edge="1" parent="1" source="TUdrBF9tCKFqTnY4Q7Av-52" target="TUdrBF9tCKFqTnY4Q7Av-74">
          <mxGeometry relative="1" as="geometry" />
        </mxCell>
        <mxCell id="TUdrBF9tCKFqTnY4Q7Av-52" value="Client" style="whiteSpace=wrap;html=1;align=center;verticalAlign=top;spacingLeft=4;spacingRight=4;fontFamily=Helvetica;fontSize=12;fontColor=default;fillColor=none;gradientColor=none;" vertex="1" parent="1">
          <mxGeometry x="1489" y="1830" width="100" height="40" as="geometry" />
        </mxCell>
        <mxCell id="TUdrBF9tCKFqTnY4Q7Av-54" value="Instantiates" style="shape=rhombus;double=1;perimeter=rhombusPerimeter;whiteSpace=wrap;html=1;align=center;verticalAlign=middle;spacingLeft=4;spacingRight=4;fontFamily=Helvetica;fontSize=12;fontColor=default;fillColor=none;gradientColor=none;" vertex="1" parent="1">
          <mxGeometry x="1670" y="1330" width="120" height="60" as="geometry" />
        </mxCell>
        <mxCell id="TUdrBF9tCKFqTnY4Q7Av-57" style="edgeStyle=orthogonalEdgeStyle;rounded=0;orthogonalLoop=1;jettySize=auto;html=1;entryX=0.5;entryY=0;entryDx=0;entryDy=0;fontFamily=Helvetica;fontSize=12;fontColor=default;" edge="1" parent="1" target="TUdrBF9tCKFqTnY4Q7Av-58" source="TUdrBF9tCKFqTnY4Q7Av-5">
          <mxGeometry relative="1" as="geometry">
            <mxPoint x="1935" y="1220" as="sourcePoint" />
          </mxGeometry>
        </mxCell>
        <mxCell id="TUdrBF9tCKFqTnY4Q7Av-58" value="Instantiates" style="shape=rhombus;double=1;perimeter=rhombusPerimeter;whiteSpace=wrap;html=1;align=center;verticalAlign=middle;spacingLeft=4;spacingRight=4;fontFamily=Helvetica;fontSize=12;fontColor=default;fillColor=none;gradientColor=none;" vertex="1" parent="1">
          <mxGeometry x="1875" y="1330" width="120" height="60" as="geometry" />
        </mxCell>
        <mxCell id="TUdrBF9tCKFqTnY4Q7Av-59" style="edgeStyle=orthogonalEdgeStyle;rounded=0;orthogonalLoop=1;jettySize=auto;html=1;entryX=0.5;entryY=0;entryDx=0;entryDy=0;fontFamily=Helvetica;fontSize=12;fontColor=default;" edge="1" parent="1" target="TUdrBF9tCKFqTnY4Q7Av-60" source="TUdrBF9tCKFqTnY4Q7Av-9">
          <mxGeometry relative="1" as="geometry">
            <mxPoint x="2140" y="1220" as="sourcePoint" />
          </mxGeometry>
        </mxCell>
        <mxCell id="TUdrBF9tCKFqTnY4Q7Av-60" value="Instantiates" style="shape=rhombus;double=1;perimeter=rhombusPerimeter;whiteSpace=wrap;html=1;align=center;verticalAlign=middle;spacingLeft=4;spacingRight=4;fontFamily=Helvetica;fontSize=12;fontColor=default;fillColor=none;gradientColor=none;" vertex="1" parent="1">
          <mxGeometry x="2080" y="1330" width="120" height="60" as="geometry" />
        </mxCell>
        <mxCell id="TUdrBF9tCKFqTnY4Q7Av-62" style="edgeStyle=orthogonalEdgeStyle;rounded=0;orthogonalLoop=1;jettySize=auto;html=1;entryX=0.5;entryY=0;entryDx=0;entryDy=0;fontFamily=Helvetica;fontSize=12;fontColor=default;" edge="1" parent="1" target="TUdrBF9tCKFqTnY4Q7Av-63" source="dIdRgz5ZT3AcrDY_tP68-29">
          <mxGeometry relative="1" as="geometry">
            <mxPoint x="1229.996923076923" y="1040" as="sourcePoint" />
          </mxGeometry>
        </mxCell>
        <mxCell id="TUdrBF9tCKFqTnY4Q7Av-65" style="edgeStyle=orthogonalEdgeStyle;rounded=0;orthogonalLoop=1;jettySize=auto;html=1;entryX=0.5;entryY=0;entryDx=0;entryDy=0;fontFamily=Helvetica;fontSize=12;fontColor=default;verticalAlign=middle;" edge="1" parent="1" source="TUdrBF9tCKFqTnY4Q7Av-63" target="TUdrBF9tCKFqTnY4Q7Av-64">
          <mxGeometry relative="1" as="geometry" />
        </mxCell>
        <mxCell id="TUdrBF9tCKFqTnY4Q7Av-63" value="Instantiates" style="shape=rhombus;double=1;perimeter=rhombusPerimeter;whiteSpace=wrap;html=1;align=center;verticalAlign=middle;spacingLeft=4;spacingRight=4;fontFamily=Helvetica;fontSize=12;fontColor=default;fillColor=none;gradientColor=none;" vertex="1" parent="1">
          <mxGeometry x="1310" y="1330" width="120" height="60" as="geometry" />
        </mxCell>
        <mxCell id="TUdrBF9tCKFqTnY4Q7Av-64" value="&lt;p&gt;Core instance&lt;/p&gt;" style="shape=ext;margin=3;double=1;whiteSpace=wrap;html=1;align=center;verticalAlign=middle;spacingLeft=4;spacingRight=4;fontFamily=Helvetica;fontSize=12;fontColor=default;fillColor=none;gradientColor=none;" vertex="1" parent="1">
          <mxGeometry x="1320" y="1440" width="100" height="40" as="geometry" />
        </mxCell>
        <mxCell id="TUdrBF9tCKFqTnY4Q7Av-68" style="edgeStyle=orthogonalEdgeStyle;rounded=0;orthogonalLoop=1;jettySize=auto;html=1;entryX=0.5;entryY=0;entryDx=0;entryDy=0;fontFamily=Helvetica;fontSize=12;fontColor=default;verticalAlign=middle;exitX=0.5;exitY=1;exitDx=0;exitDy=0;" edge="1" parent="1" target="TUdrBF9tCKFqTnY4Q7Av-69" source="TUdrBF9tCKFqTnY4Q7Av-60">
          <mxGeometry relative="1" as="geometry">
            <mxPoint x="1390" y="1410" as="sourcePoint" />
          </mxGeometry>
        </mxCell>
        <mxCell id="TUdrBF9tCKFqTnY4Q7Av-69" value="&lt;p&gt;Shield instance&lt;/p&gt;" style="shape=ext;margin=3;double=1;whiteSpace=wrap;html=1;align=center;verticalAlign=middle;spacingLeft=4;spacingRight=4;fontFamily=Helvetica;fontSize=12;fontColor=default;fillColor=none;gradientColor=none;" vertex="1" parent="1">
          <mxGeometry x="2090" y="1440" width="100" height="40" as="geometry" />
        </mxCell>
        <mxCell id="TUdrBF9tCKFqTnY4Q7Av-70" style="edgeStyle=orthogonalEdgeStyle;rounded=0;orthogonalLoop=1;jettySize=auto;html=1;entryX=0.5;entryY=0;entryDx=0;entryDy=0;fontFamily=Helvetica;fontSize=12;fontColor=default;verticalAlign=middle;exitX=0.5;exitY=1;exitDx=0;exitDy=0;" edge="1" parent="1" target="TUdrBF9tCKFqTnY4Q7Av-71" source="TUdrBF9tCKFqTnY4Q7Av-58">
          <mxGeometry relative="1" as="geometry">
            <mxPoint x="1400" y="1420" as="sourcePoint" />
          </mxGeometry>
        </mxCell>
        <mxCell id="TUdrBF9tCKFqTnY4Q7Av-71" value="&lt;p&gt;Generator instance&lt;/p&gt;" style="shape=ext;margin=3;double=1;whiteSpace=wrap;html=1;align=center;verticalAlign=middle;spacingLeft=4;spacingRight=4;fontFamily=Helvetica;fontSize=12;fontColor=default;fillColor=none;gradientColor=none;" vertex="1" parent="1">
          <mxGeometry x="1885" y="1440" width="100" height="40" as="geometry" />
        </mxCell>
        <mxCell id="TUdrBF9tCKFqTnY4Q7Av-72" style="edgeStyle=orthogonalEdgeStyle;rounded=0;orthogonalLoop=1;jettySize=auto;html=1;entryX=0.5;entryY=0;entryDx=0;entryDy=0;fontFamily=Helvetica;fontSize=12;fontColor=default;verticalAlign=middle;" edge="1" parent="1" target="TUdrBF9tCKFqTnY4Q7Av-73">
          <mxGeometry relative="1" as="geometry">
            <mxPoint x="1730" y="1390" as="sourcePoint" />
          </mxGeometry>
        </mxCell>
        <mxCell id="TUdrBF9tCKFqTnY4Q7Av-73" value="&lt;p&gt;Gun instance&lt;/p&gt;" style="shape=ext;margin=3;double=1;whiteSpace=wrap;html=1;align=center;verticalAlign=middle;spacingLeft=4;spacingRight=4;fontFamily=Helvetica;fontSize=12;fontColor=default;fillColor=none;gradientColor=none;" vertex="1" parent="1">
          <mxGeometry x="1680" y="1440" width="100" height="40" as="geometry" />
        </mxCell>
        <mxCell id="TUdrBF9tCKFqTnY4Q7Av-77" value="Core instance is  contained in inventory" style="edgeStyle=orthogonalEdgeStyle;rounded=0;orthogonalLoop=1;jettySize=auto;html=1;fontFamily=Helvetica;fontSize=12;fontColor=default;startArrow=classic;startFill=1;endArrow=none;endFill=0;" edge="1" parent="1" source="TUdrBF9tCKFqTnY4Q7Av-74" target="TUdrBF9tCKFqTnY4Q7Av-64">
          <mxGeometry x="0.0051" relative="1" as="geometry">
            <mxPoint as="offset" />
          </mxGeometry>
        </mxCell>
        <mxCell id="TUdrBF9tCKFqTnY4Q7Av-74" value="Inventory" style="shape=rhombus;double=1;perimeter=rhombusPerimeter;whiteSpace=wrap;html=1;align=center;verticalAlign=middle;spacingLeft=4;spacingRight=4;fontFamily=Helvetica;fontSize=12;fontColor=default;fillColor=none;gradientColor=none;" vertex="1" parent="1">
          <mxGeometry x="1479" y="1640" width="120" height="60" as="geometry" />
        </mxCell>
        <mxCell id="TUdrBF9tCKFqTnY4Q7Av-79" value="Generator instance is contained in inventory" style="edgeStyle=orthogonalEdgeStyle;rounded=0;orthogonalLoop=1;jettySize=auto;html=1;fontFamily=Helvetica;fontSize=12;fontColor=default;startArrow=classic;startFill=1;endArrow=none;endFill=0;" edge="1" parent="1" source="TUdrBF9tCKFqTnY4Q7Av-74" target="TUdrBF9tCKFqTnY4Q7Av-69">
          <mxGeometry x="0.0051" relative="1" as="geometry">
            <mxPoint x="1490" y="1680" as="sourcePoint" />
            <mxPoint x="1380" y="1530" as="targetPoint" />
            <mxPoint as="offset" />
          </mxGeometry>
        </mxCell>
        <mxCell id="TUdrBF9tCKFqTnY4Q7Av-80" value="Generator   instance is  contained in inventory" style="edgeStyle=orthogonalEdgeStyle;rounded=0;orthogonalLoop=1;jettySize=auto;html=1;fontFamily=Helvetica;fontSize=12;fontColor=default;startArrow=classic;startFill=1;endArrow=none;endFill=0;" edge="1" parent="1" source="TUdrBF9tCKFqTnY4Q7Av-74" target="TUdrBF9tCKFqTnY4Q7Av-71">
          <mxGeometry x="0.003" relative="1" as="geometry">
            <mxPoint x="1500" y="1690" as="sourcePoint" />
            <mxPoint x="1390" y="1540" as="targetPoint" />
            <mxPoint as="offset" />
            <Array as="points">
              <mxPoint x="1540" y="1630" />
              <mxPoint x="1935" y="1630" />
            </Array>
          </mxGeometry>
        </mxCell>
        <mxCell id="TUdrBF9tCKFqTnY4Q7Av-81" value="Generator instance is  contained in inventory" style="edgeStyle=orthogonalEdgeStyle;rounded=0;orthogonalLoop=1;jettySize=auto;html=1;fontFamily=Helvetica;fontSize=12;fontColor=default;startArrow=classic;startFill=1;endArrow=none;endFill=0;" edge="1" parent="1" source="TUdrBF9tCKFqTnY4Q7Av-74" target="TUdrBF9tCKFqTnY4Q7Av-73">
          <mxGeometry x="0.0095" relative="1" as="geometry">
            <mxPoint x="1760" y="1710" as="sourcePoint" />
            <mxPoint x="1650" y="1560" as="targetPoint" />
            <mxPoint as="offset" />
            <Array as="points">
              <mxPoint x="1540" y="1600" />
              <mxPoint x="1730" y="1600" />
            </Array>
          </mxGeometry>
        </mxCell>
      </root>
    </mxGraphModel>
  </diagram>
</mxfile>
